<mxfile host="app.diagrams.net" modified="2024-05-21T20:02:33.842Z" agent="Mozilla/5.0 (Windows NT 10.0; Win64; x64; rv:126.0) Gecko/20100101 Firefox/126.0" etag="Gak1GLcf7Ks4y8tyzblO" version="24.4.4" type="device">
  <diagram name="Страница — 1" id="Oq_OT-j7oiayGBt7ROjn">
    <mxGraphModel dx="1050" dy="654" grid="0" gridSize="10" guides="1" tooltips="1" connect="1" arrows="1" fold="1" page="0" pageScale="1" pageWidth="827" pageHeight="1169" math="0" shadow="0">
      <root>
        <mxCell id="0" />
        <mxCell id="1" parent="0" />
        <mxCell id="HWkib-oj6WVOyAymEHYL-3" style="edgeStyle=orthogonalEdgeStyle;rounded=0;orthogonalLoop=1;jettySize=auto;html=1;exitX=0.5;exitY=1;exitDx=0;exitDy=0;entryX=0.5;entryY=0;entryDx=0;entryDy=0;" edge="1" parent="1" source="HWkib-oj6WVOyAymEHYL-1" target="HWkib-oj6WVOyAymEHYL-2">
          <mxGeometry relative="1" as="geometry" />
        </mxCell>
        <mxCell id="HWkib-oj6WVOyAymEHYL-1" value="Функциональная схема приложения WPF &quot;Квазар.Админ&quot;" style="rounded=1;whiteSpace=wrap;html=1;" vertex="1" parent="1">
          <mxGeometry x="213" y="38" width="301" height="60" as="geometry" />
        </mxCell>
        <mxCell id="HWkib-oj6WVOyAymEHYL-5" style="edgeStyle=orthogonalEdgeStyle;rounded=0;orthogonalLoop=1;jettySize=auto;html=1;exitX=0.5;exitY=1;exitDx=0;exitDy=0;entryX=0.5;entryY=0;entryDx=0;entryDy=0;" edge="1" parent="1" source="HWkib-oj6WVOyAymEHYL-2" target="HWkib-oj6WVOyAymEHYL-4">
          <mxGeometry relative="1" as="geometry" />
        </mxCell>
        <mxCell id="HWkib-oj6WVOyAymEHYL-2" value="Окно авторизации" style="rounded=1;whiteSpace=wrap;html=1;" vertex="1" parent="1">
          <mxGeometry x="303.5" y="122" width="120" height="41" as="geometry" />
        </mxCell>
        <mxCell id="HWkib-oj6WVOyAymEHYL-7" style="edgeStyle=orthogonalEdgeStyle;rounded=0;orthogonalLoop=1;jettySize=auto;html=1;exitX=0.5;exitY=1;exitDx=0;exitDy=0;entryX=0.5;entryY=0;entryDx=0;entryDy=0;" edge="1" parent="1" source="HWkib-oj6WVOyAymEHYL-4" target="HWkib-oj6WVOyAymEHYL-6">
          <mxGeometry relative="1" as="geometry" />
        </mxCell>
        <mxCell id="HWkib-oj6WVOyAymEHYL-4" value="Авторизация" style="rounded=1;whiteSpace=wrap;html=1;" vertex="1" parent="1">
          <mxGeometry x="320.75" y="188" width="85.5" height="33" as="geometry" />
        </mxCell>
        <mxCell id="HWkib-oj6WVOyAymEHYL-18" style="edgeStyle=orthogonalEdgeStyle;rounded=0;orthogonalLoop=1;jettySize=auto;html=1;exitX=0.5;exitY=1;exitDx=0;exitDy=0;" edge="1" parent="1" source="HWkib-oj6WVOyAymEHYL-6" target="HWkib-oj6WVOyAymEHYL-10">
          <mxGeometry relative="1" as="geometry" />
        </mxCell>
        <mxCell id="HWkib-oj6WVOyAymEHYL-19" style="edgeStyle=orthogonalEdgeStyle;rounded=0;orthogonalLoop=1;jettySize=auto;html=1;exitX=0.5;exitY=1;exitDx=0;exitDy=0;" edge="1" parent="1" source="HWkib-oj6WVOyAymEHYL-6" target="HWkib-oj6WVOyAymEHYL-11">
          <mxGeometry relative="1" as="geometry">
            <Array as="points">
              <mxPoint x="364" y="330" />
              <mxPoint x="506" y="330" />
            </Array>
          </mxGeometry>
        </mxCell>
        <mxCell id="HWkib-oj6WVOyAymEHYL-20" style="edgeStyle=orthogonalEdgeStyle;rounded=0;orthogonalLoop=1;jettySize=auto;html=1;exitX=0.5;exitY=1;exitDx=0;exitDy=0;" edge="1" parent="1" source="HWkib-oj6WVOyAymEHYL-6" target="HWkib-oj6WVOyAymEHYL-12">
          <mxGeometry relative="1" as="geometry">
            <Array as="points">
              <mxPoint x="364" y="330" />
              <mxPoint x="649" y="330" />
            </Array>
          </mxGeometry>
        </mxCell>
        <mxCell id="HWkib-oj6WVOyAymEHYL-21" style="edgeStyle=orthogonalEdgeStyle;rounded=0;orthogonalLoop=1;jettySize=auto;html=1;exitX=0.5;exitY=1;exitDx=0;exitDy=0;entryX=0.5;entryY=0;entryDx=0;entryDy=0;" edge="1" parent="1" source="HWkib-oj6WVOyAymEHYL-6" target="HWkib-oj6WVOyAymEHYL-9">
          <mxGeometry relative="1" as="geometry">
            <Array as="points">
              <mxPoint x="364" y="330" />
              <mxPoint x="221" y="330" />
            </Array>
          </mxGeometry>
        </mxCell>
        <mxCell id="HWkib-oj6WVOyAymEHYL-22" style="edgeStyle=orthogonalEdgeStyle;rounded=0;orthogonalLoop=1;jettySize=auto;html=1;exitX=0.5;exitY=1;exitDx=0;exitDy=0;entryX=0.5;entryY=0;entryDx=0;entryDy=0;" edge="1" parent="1" source="HWkib-oj6WVOyAymEHYL-6" target="HWkib-oj6WVOyAymEHYL-8">
          <mxGeometry relative="1" as="geometry">
            <Array as="points">
              <mxPoint x="364" y="330" />
              <mxPoint x="79" y="330" />
            </Array>
          </mxGeometry>
        </mxCell>
        <mxCell id="HWkib-oj6WVOyAymEHYL-6" value="Окно навигации" style="rounded=1;whiteSpace=wrap;html=1;" vertex="1" parent="1">
          <mxGeometry x="303.5" y="250" width="120" height="60" as="geometry" />
        </mxCell>
        <mxCell id="HWkib-oj6WVOyAymEHYL-26" style="edgeStyle=orthogonalEdgeStyle;rounded=0;orthogonalLoop=1;jettySize=auto;html=1;exitX=0.25;exitY=1;exitDx=0;exitDy=0;entryX=0;entryY=0.5;entryDx=0;entryDy=0;" edge="1" parent="1" source="HWkib-oj6WVOyAymEHYL-8" target="HWkib-oj6WVOyAymEHYL-23">
          <mxGeometry relative="1" as="geometry">
            <Array as="points">
              <mxPoint x="49" y="434" />
            </Array>
          </mxGeometry>
        </mxCell>
        <mxCell id="HWkib-oj6WVOyAymEHYL-30" style="edgeStyle=orthogonalEdgeStyle;rounded=0;orthogonalLoop=1;jettySize=auto;html=1;exitX=0.25;exitY=1;exitDx=0;exitDy=0;entryX=0;entryY=0.5;entryDx=0;entryDy=0;" edge="1" parent="1" source="HWkib-oj6WVOyAymEHYL-8" target="HWkib-oj6WVOyAymEHYL-27">
          <mxGeometry relative="1" as="geometry">
            <Array as="points">
              <mxPoint x="49" y="481" />
            </Array>
          </mxGeometry>
        </mxCell>
        <mxCell id="HWkib-oj6WVOyAymEHYL-31" style="edgeStyle=orthogonalEdgeStyle;rounded=0;orthogonalLoop=1;jettySize=auto;html=1;exitX=0.25;exitY=1;exitDx=0;exitDy=0;entryX=0;entryY=0.5;entryDx=0;entryDy=0;" edge="1" parent="1" source="HWkib-oj6WVOyAymEHYL-8" target="HWkib-oj6WVOyAymEHYL-28">
          <mxGeometry relative="1" as="geometry">
            <Array as="points">
              <mxPoint x="49" y="528" />
            </Array>
          </mxGeometry>
        </mxCell>
        <mxCell id="HWkib-oj6WVOyAymEHYL-32" style="edgeStyle=orthogonalEdgeStyle;rounded=0;orthogonalLoop=1;jettySize=auto;html=1;exitX=0.25;exitY=1;exitDx=0;exitDy=0;entryX=0;entryY=0.5;entryDx=0;entryDy=0;" edge="1" parent="1" source="HWkib-oj6WVOyAymEHYL-8" target="HWkib-oj6WVOyAymEHYL-29">
          <mxGeometry relative="1" as="geometry">
            <Array as="points">
              <mxPoint x="49" y="575" />
            </Array>
          </mxGeometry>
        </mxCell>
        <mxCell id="HWkib-oj6WVOyAymEHYL-8" value="Страница &quot;Фильмы&quot;" style="rounded=1;whiteSpace=wrap;html=1;" vertex="1" parent="1">
          <mxGeometry x="19" y="341" width="120" height="60" as="geometry" />
        </mxCell>
        <mxCell id="HWkib-oj6WVOyAymEHYL-40" style="edgeStyle=orthogonalEdgeStyle;rounded=0;orthogonalLoop=1;jettySize=auto;html=1;exitX=0.25;exitY=1;exitDx=0;exitDy=0;entryX=0;entryY=0.5;entryDx=0;entryDy=0;" edge="1" parent="1" source="HWkib-oj6WVOyAymEHYL-9" target="HWkib-oj6WVOyAymEHYL-34">
          <mxGeometry relative="1" as="geometry">
            <Array as="points">
              <mxPoint x="191" y="481" />
            </Array>
          </mxGeometry>
        </mxCell>
        <mxCell id="HWkib-oj6WVOyAymEHYL-41" style="edgeStyle=orthogonalEdgeStyle;rounded=0;orthogonalLoop=1;jettySize=auto;html=1;exitX=0.25;exitY=1;exitDx=0;exitDy=0;entryX=0;entryY=0.5;entryDx=0;entryDy=0;" edge="1" parent="1" source="HWkib-oj6WVOyAymEHYL-9" target="HWkib-oj6WVOyAymEHYL-33">
          <mxGeometry relative="1" as="geometry">
            <Array as="points">
              <mxPoint x="191" y="434" />
            </Array>
          </mxGeometry>
        </mxCell>
        <mxCell id="HWkib-oj6WVOyAymEHYL-42" style="edgeStyle=orthogonalEdgeStyle;rounded=0;orthogonalLoop=1;jettySize=auto;html=1;exitX=0.25;exitY=1;exitDx=0;exitDy=0;entryX=0;entryY=0.5;entryDx=0;entryDy=0;" edge="1" parent="1" source="HWkib-oj6WVOyAymEHYL-9" target="HWkib-oj6WVOyAymEHYL-35">
          <mxGeometry relative="1" as="geometry">
            <Array as="points">
              <mxPoint x="191" y="528" />
            </Array>
          </mxGeometry>
        </mxCell>
        <mxCell id="HWkib-oj6WVOyAymEHYL-43" style="edgeStyle=orthogonalEdgeStyle;rounded=0;orthogonalLoop=1;jettySize=auto;html=1;exitX=0.25;exitY=1;exitDx=0;exitDy=0;entryX=0;entryY=0.5;entryDx=0;entryDy=0;" edge="1" parent="1" source="HWkib-oj6WVOyAymEHYL-9" target="HWkib-oj6WVOyAymEHYL-36">
          <mxGeometry relative="1" as="geometry">
            <Array as="points">
              <mxPoint x="191" y="575" />
            </Array>
          </mxGeometry>
        </mxCell>
        <mxCell id="HWkib-oj6WVOyAymEHYL-9" value="Страница &quot;Сеансы&quot;" style="rounded=1;whiteSpace=wrap;html=1;" vertex="1" parent="1">
          <mxGeometry x="161" y="341" width="120" height="60" as="geometry" />
        </mxCell>
        <mxCell id="HWkib-oj6WVOyAymEHYL-56" style="edgeStyle=orthogonalEdgeStyle;rounded=0;orthogonalLoop=1;jettySize=auto;html=1;exitX=0.25;exitY=1;exitDx=0;exitDy=0;entryX=0;entryY=0.5;entryDx=0;entryDy=0;" edge="1" parent="1" source="HWkib-oj6WVOyAymEHYL-10" target="HWkib-oj6WVOyAymEHYL-52">
          <mxGeometry relative="1" as="geometry">
            <Array as="points">
              <mxPoint x="334" y="434" />
            </Array>
          </mxGeometry>
        </mxCell>
        <mxCell id="HWkib-oj6WVOyAymEHYL-10" value="Страница &quot;Залы&quot;" style="rounded=1;whiteSpace=wrap;html=1;" vertex="1" parent="1">
          <mxGeometry x="303.5" y="341" width="120" height="60" as="geometry" />
        </mxCell>
        <mxCell id="HWkib-oj6WVOyAymEHYL-48" style="edgeStyle=orthogonalEdgeStyle;rounded=0;orthogonalLoop=1;jettySize=auto;html=1;exitX=0.25;exitY=1;exitDx=0;exitDy=0;entryX=0;entryY=0.5;entryDx=0;entryDy=0;" edge="1" parent="1" source="HWkib-oj6WVOyAymEHYL-11" target="HWkib-oj6WVOyAymEHYL-45">
          <mxGeometry relative="1" as="geometry">
            <Array as="points">
              <mxPoint x="476" y="481" />
            </Array>
          </mxGeometry>
        </mxCell>
        <mxCell id="HWkib-oj6WVOyAymEHYL-49" style="edgeStyle=orthogonalEdgeStyle;rounded=0;orthogonalLoop=1;jettySize=auto;html=1;exitX=0.25;exitY=1;exitDx=0;exitDy=0;entryX=0;entryY=0.5;entryDx=0;entryDy=0;" edge="1" parent="1" source="HWkib-oj6WVOyAymEHYL-11" target="HWkib-oj6WVOyAymEHYL-44">
          <mxGeometry relative="1" as="geometry">
            <Array as="points">
              <mxPoint x="476" y="434" />
            </Array>
          </mxGeometry>
        </mxCell>
        <mxCell id="HWkib-oj6WVOyAymEHYL-50" style="edgeStyle=orthogonalEdgeStyle;rounded=0;orthogonalLoop=1;jettySize=auto;html=1;exitX=0.25;exitY=1;exitDx=0;exitDy=0;entryX=0;entryY=0.5;entryDx=0;entryDy=0;" edge="1" parent="1" source="HWkib-oj6WVOyAymEHYL-11" target="HWkib-oj6WVOyAymEHYL-46">
          <mxGeometry relative="1" as="geometry">
            <Array as="points">
              <mxPoint x="476" y="528" />
            </Array>
          </mxGeometry>
        </mxCell>
        <mxCell id="HWkib-oj6WVOyAymEHYL-51" style="edgeStyle=orthogonalEdgeStyle;rounded=0;orthogonalLoop=1;jettySize=auto;html=1;exitX=0.25;exitY=1;exitDx=0;exitDy=0;entryX=0;entryY=0.5;entryDx=0;entryDy=0;" edge="1" parent="1" source="HWkib-oj6WVOyAymEHYL-11" target="HWkib-oj6WVOyAymEHYL-47">
          <mxGeometry relative="1" as="geometry">
            <Array as="points">
              <mxPoint x="476" y="575" />
            </Array>
          </mxGeometry>
        </mxCell>
        <mxCell id="HWkib-oj6WVOyAymEHYL-11" value="Страница &quot;Сотрудники&quot;" style="rounded=1;whiteSpace=wrap;html=1;" vertex="1" parent="1">
          <mxGeometry x="446" y="341" width="120" height="60" as="geometry" />
        </mxCell>
        <mxCell id="HWkib-oj6WVOyAymEHYL-16" style="edgeStyle=orthogonalEdgeStyle;rounded=0;orthogonalLoop=1;jettySize=auto;html=1;exitX=0.25;exitY=1;exitDx=0;exitDy=0;entryX=0;entryY=0.5;entryDx=0;entryDy=0;" edge="1" parent="1" source="HWkib-oj6WVOyAymEHYL-12" target="HWkib-oj6WVOyAymEHYL-15">
          <mxGeometry relative="1" as="geometry">
            <Array as="points">
              <mxPoint x="619" y="481" />
            </Array>
          </mxGeometry>
        </mxCell>
        <mxCell id="HWkib-oj6WVOyAymEHYL-17" style="edgeStyle=orthogonalEdgeStyle;rounded=0;orthogonalLoop=1;jettySize=auto;html=1;exitX=0.25;exitY=1;exitDx=0;exitDy=0;entryX=0;entryY=0.5;entryDx=0;entryDy=0;" edge="1" parent="1" source="HWkib-oj6WVOyAymEHYL-12" target="HWkib-oj6WVOyAymEHYL-13">
          <mxGeometry relative="1" as="geometry">
            <Array as="points">
              <mxPoint x="619" y="432" />
            </Array>
          </mxGeometry>
        </mxCell>
        <mxCell id="HWkib-oj6WVOyAymEHYL-12" value="Страница &quot;Профиль&quot;" style="rounded=1;whiteSpace=wrap;html=1;" vertex="1" parent="1">
          <mxGeometry x="589" y="341" width="120" height="60" as="geometry" />
        </mxCell>
        <mxCell id="HWkib-oj6WVOyAymEHYL-13" value="Вывод личной информации" style="rounded=1;whiteSpace=wrap;html=1;" vertex="1" parent="1">
          <mxGeometry x="633" y="414" width="111" height="36" as="geometry" />
        </mxCell>
        <mxCell id="HWkib-oj6WVOyAymEHYL-15" value="Выход из аккаунта" style="rounded=1;whiteSpace=wrap;html=1;" vertex="1" parent="1">
          <mxGeometry x="633" y="463" width="111" height="36" as="geometry" />
        </mxCell>
        <mxCell id="HWkib-oj6WVOyAymEHYL-23" value="Добавление фильма" style="rounded=1;whiteSpace=wrap;html=1;" vertex="1" parent="1">
          <mxGeometry x="63" y="416" width="111" height="36" as="geometry" />
        </mxCell>
        <mxCell id="HWkib-oj6WVOyAymEHYL-27" value="Изменение фильма" style="rounded=1;whiteSpace=wrap;html=1;" vertex="1" parent="1">
          <mxGeometry x="63" y="463" width="111" height="36" as="geometry" />
        </mxCell>
        <mxCell id="HWkib-oj6WVOyAymEHYL-28" value="Удаление фильма" style="rounded=1;whiteSpace=wrap;html=1;" vertex="1" parent="1">
          <mxGeometry x="63" y="510" width="111" height="36" as="geometry" />
        </mxCell>
        <mxCell id="HWkib-oj6WVOyAymEHYL-29" value="Вывод фильма" style="rounded=1;whiteSpace=wrap;html=1;" vertex="1" parent="1">
          <mxGeometry x="63" y="557" width="111" height="36" as="geometry" />
        </mxCell>
        <mxCell id="HWkib-oj6WVOyAymEHYL-33" value="Добавление сеанса" style="rounded=1;whiteSpace=wrap;html=1;" vertex="1" parent="1">
          <mxGeometry x="206" y="416" width="111" height="36" as="geometry" />
        </mxCell>
        <mxCell id="HWkib-oj6WVOyAymEHYL-34" value="Изменение сеанса" style="rounded=1;whiteSpace=wrap;html=1;" vertex="1" parent="1">
          <mxGeometry x="206" y="463" width="111" height="36" as="geometry" />
        </mxCell>
        <mxCell id="HWkib-oj6WVOyAymEHYL-35" value="Удаление сеанса" style="rounded=1;whiteSpace=wrap;html=1;" vertex="1" parent="1">
          <mxGeometry x="206" y="510" width="111" height="36" as="geometry" />
        </mxCell>
        <mxCell id="HWkib-oj6WVOyAymEHYL-36" value="Вывод сеанса" style="rounded=1;whiteSpace=wrap;html=1;" vertex="1" parent="1">
          <mxGeometry x="206" y="557" width="111" height="36" as="geometry" />
        </mxCell>
        <mxCell id="HWkib-oj6WVOyAymEHYL-44" value="Добавление сотрудника" style="rounded=1;whiteSpace=wrap;html=1;" vertex="1" parent="1">
          <mxGeometry x="492" y="416" width="111" height="36" as="geometry" />
        </mxCell>
        <mxCell id="HWkib-oj6WVOyAymEHYL-45" value="Изменение сотрудника" style="rounded=1;whiteSpace=wrap;html=1;" vertex="1" parent="1">
          <mxGeometry x="492" y="463" width="111" height="36" as="geometry" />
        </mxCell>
        <mxCell id="HWkib-oj6WVOyAymEHYL-46" value="Удаление сотрудника" style="rounded=1;whiteSpace=wrap;html=1;" vertex="1" parent="1">
          <mxGeometry x="492" y="510" width="111" height="36" as="geometry" />
        </mxCell>
        <mxCell id="HWkib-oj6WVOyAymEHYL-47" value="Вывод сотрудника" style="rounded=1;whiteSpace=wrap;html=1;" vertex="1" parent="1">
          <mxGeometry x="492" y="557" width="111" height="36" as="geometry" />
        </mxCell>
        <mxCell id="HWkib-oj6WVOyAymEHYL-52" value="Вывод зала" style="rounded=1;whiteSpace=wrap;html=1;" vertex="1" parent="1">
          <mxGeometry x="354" y="416" width="111" height="36" as="geometry" />
        </mxCell>
      </root>
    </mxGraphModel>
  </diagram>
</mxfile>
